<svg width="2048" height="2048" viewBox="0 0 2048 2048" fill="none" xmlns="http://www.w3.org/2000/svg">
<path d="M1533.8 506.066C1536.51 507.795 1538.96 509.886 1540 513C1540.05 514.059 1540.07 515.12 1540.07 516.18C1540.07 516.505 1540.07 516.831 1540.07 517.166C1540.08 518.265 1540.08 519.363 1540.08 520.461C1540.08 521.254 1540.08 522.046 1540.08 522.839C1540.09 525.023 1540.09 527.206 1540.09 529.39C1540.1 531.743 1540.1 534.096 1540.11 536.448C1540.12 542.133 1540.13 547.818 1540.13 553.504C1540.14 555.109 1540.14 556.714 1540.14 558.319C1540.15 568.284 1540.16 578.248 1540.17 588.213C1540.17 590.521 1540.17 592.83 1540.18 595.138C1540.18 595.712 1540.18 596.286 1540.18 596.877C1540.18 606.175 1540.2 615.472 1540.22 624.77C1540.24 634.312 1540.25 643.854 1540.26 653.396C1540.26 658.755 1540.26 664.114 1540.28 669.473C1540.29 674.036 1540.3 678.599 1540.29 683.163C1540.29 685.492 1540.29 687.82 1540.3 690.149C1540.32 692.281 1540.32 694.413 1540.31 696.545C1540.3 697.316 1540.31 698.087 1540.32 698.858C1540.36 703.626 1540.01 706.834 1536.67 710.386C1534.52 712.515 1532.23 713.236 1529.34 713.937C1528.41 714.183 1527.48 714.429 1526.55 714.678C1526.06 714.807 1525.57 714.937 1525.06 715.071C1521.72 715.988 1518.42 717.057 1515.12 718.098C1512.03 719.06 1508.95 719.91 1505.81 720.675C1504.32 721.044 1502.87 721.472 1501.41 721.937C1496.17 723.578 1490.91 725.144 1485.59 726.531C1482.83 727.255 1480.15 728.103 1477.45 729.031C1475.46 729.674 1473.44 730.154 1471.4 730.643C1470.16 730.96 1468.96 731.329 1467.75 731.75C1466.05 732.342 1464.35 732.798 1462.59 733.219C1460.52 733.72 1458.52 734.307 1456.5 735C1453.99 735.862 1451.48 736.524 1448.9 737.143C1447.66 737.46 1446.46 737.829 1445.25 738.25C1443.6 738.822 1441.95 739.277 1440.25 739.687C1434.54 741.079 1428.94 742.854 1423.34 744.631C1420.89 745.401 1418.42 746.031 1415.92 746.629C1414.45 747.012 1413.03 747.475 1411.59 747.969C1408.8 748.925 1405.98 749.689 1403.13 750.434C1399.3 751.44 1395.51 752.56 1391.71 753.654C1390.65 753.956 1389.6 754.254 1388.54 754.549C1385.6 755.371 1382.7 756.26 1379.81 757.25C1376.89 758.242 1373.96 759.05 1370.96 759.776C1365.84 761.015 1360.82 762.549 1355.81 764.142C1354.12 764.672 1352.45 765.155 1350.72 765.5C1348.37 765.971 1346.13 766.777 1343.87 767.554C1341.39 768.396 1338.89 769.056 1336.35 769.66C1335.12 769.97 1333.94 770.335 1332.75 770.75C1331.06 771.337 1329.37 771.797 1327.62 772.219C1325.54 772.726 1323.49 773.295 1321.44 773.937C1318.86 774.747 1316.26 775.499 1313.66 776.219C1313.28 776.323 1312.9 776.427 1312.51 776.535C1310.94 776.968 1309.37 777.4 1307.79 777.831C1302.14 779.367 1302.14 779.367 1296.57 781.16C1294.72 781.748 1292.83 782.169 1290.95 782.625C1289.69 782.95 1288.48 783.322 1287.25 783.75C1285.55 784.342 1283.85 784.798 1282.09 785.219C1280.02 785.72 1278.02 786.307 1276 787C1273.49 787.862 1270.98 788.524 1268.4 789.143C1267.16 789.46 1265.96 789.829 1264.75 790.25C1263.06 790.837 1261.37 791.297 1259.62 791.719C1256.92 792.375 1254.28 793.177 1251.62 794.014C1250.04 794.489 1248.45 794.895 1246.84 795.281C1245.22 795.674 1243.67 796.089 1242.12 796.719C1239.81 797.647 1237.38 798.173 1234.96 798.759C1232.8 799.287 1230.7 799.901 1228.6 800.643C1226.75 801.244 1224.85 801.666 1222.95 802.125C1221.69 802.45 1220.48 802.822 1219.25 803.25C1217.56 803.837 1215.87 804.297 1214.12 804.719C1211.42 805.375 1208.78 806.177 1206.12 807.014C1204.54 807.489 1202.95 807.895 1201.34 808.281C1199.72 808.674 1198.17 809.089 1196.62 809.719C1194.31 810.647 1191.88 811.173 1189.46 811.759C1187.3 812.287 1185.2 812.901 1183.1 813.643C1181.25 814.244 1179.35 814.666 1177.45 815.125C1176.19 815.45 1174.98 815.822 1173.75 816.25C1172.06 816.837 1170.37 817.297 1168.62 817.719C1166.47 818.24 1164.36 818.835 1162.25 819.5C1160.18 820.151 1158.11 820.739 1156 821.25C1153.43 821.877 1150.91 822.623 1148.38 823.414C1142.91 825.12 1137.45 826.811 1131.88 828.148C1129.82 828.672 1127.8 829.314 1125.77 829.949C1120.47 831.597 1115.14 833.108 1109.77 834.518C1108.09 834.977 1106.42 835.477 1104.75 836C1101.86 836.905 1098.94 837.696 1096.01 838.467C1090.7 839.867 1085.41 841.348 1080.17 842.984C1074.9 844.614 1069.61 846.117 1064.27 847.518C1062.59 847.977 1060.92 848.477 1059.25 849C1056.36 849.905 1053.45 850.695 1050.52 851.467C1045.26 852.852 1040.04 854.279 1034.9 856.049C1032.92 856.685 1030.92 857.158 1028.9 857.643C1027.66 857.96 1026.46 858.329 1025.25 858.75C1023.56 859.337 1021.87 859.797 1020.12 860.219C1018 860.733 1015.93 861.315 1013.84 861.969C1011.57 862.68 1009.3 863.333 1007 863.937C1003.84 864.767 1000.7 865.638 997.562 866.531C997.129 866.654 996.695 866.777 996.248 866.903C994.204 867.487 992.178 868.098 990.166 868.783C988.225 869.44 986.275 869.961 984.281 870.437C978.249 871.91 972.273 873.526 966.4 875.549C964.425 876.185 962.418 876.658 960.4 877.143C959.156 877.46 957.962 877.829 956.75 878.25C955.058 878.837 953.366 879.297 951.625 879.719C949.505 880.233 947.425 880.815 945.344 881.469C943.074 882.18 940.8 882.833 938.5 883.437C935.344 884.267 932.201 885.138 929.062 886.031C928.629 886.154 928.195 886.277 927.748 886.403C925.704 886.987 923.678 887.598 921.666 888.283C919.725 888.94 917.775 889.461 915.781 889.937C909.739 891.412 903.76 893.04 897.875 895.055C896.048 895.647 894.199 896.094 892.332 896.545C886.431 898.011 880.552 899.583 874.805 901.572C873.002 902.163 871.175 902.6 869.332 903.045C863.441 904.508 857.565 906.07 851.83 908.066C849.879 908.702 847.893 909.165 845.898 909.643C844.664 909.958 843.482 910.327 842.281 910.75C840.489 911.374 838.697 911.811 836.844 912.219C834.151 912.817 831.592 913.61 828.988 914.514C826.983 915.169 824.949 915.651 822.898 916.143C821.664 916.458 820.482 916.827 819.281 917.25C817.489 917.874 815.697 918.311 813.844 918.719C811.151 919.317 808.592 920.11 805.988 921.014C803.984 921.669 801.95 922.151 799.9 922.643C798.656 922.96 797.462 923.329 796.25 923.75C794.558 924.337 792.866 924.797 791.125 925.219C788.972 925.74 786.863 926.335 784.75 927C782.145 927.82 779.529 928.502 776.875 929.145C775.681 929.453 774.537 929.809 773.375 930.219C770.938 931.068 768.44 931.65 765.935 932.259C763.789 932.786 761.718 933.405 759.637 934.143C758.181 934.6 756.709 934.921 755.219 935.25C753.453 935.643 751.768 936.034 750.094 936.719C747.789 937.655 745.374 938.175 742.962 938.759C740.788 939.289 738.688 939.909 736.578 940.648C735.355 941.047 734.126 941.354 732.875 941.656C719.785 944.231 719.785 944.231 708.5 950.5C707.84 950.5 707.18 950.5 706.5 950.5C706.335 950.995 706.17 951.49 706 952C705.146 952.824 705.146 952.824 704.094 953.687C702.523 955.027 701.199 956.305 700 958C699.807 958.246 699.613 958.491 699.414 958.744C696.116 963.335 694.979 969.445 694.427 974.972C694.386 975.382 694.344 975.792 694.301 976.215C693.901 980.499 693.92 984.746 694.007 989.043C694.02 989.902 694.032 990.761 694.044 991.62C694.07 993.457 694.099 995.294 694.13 997.131C694.208 1001.65 694.265 1006.17 694.324 1010.7C694.338 1011.75 694.352 1012.81 694.366 1013.86C694.522 1025.52 694.571 1037.19 694.595 1048.85C694.597 1049.87 694.599 1050.89 694.601 1051.91C694.614 1057.68 694.624 1063.46 694.633 1069.24C694.641 1074.87 694.653 1080.5 694.665 1086.13C694.686 1096.21 694.706 1106.29 694.724 1116.37C694.725 1116.97 694.726 1117.56 694.727 1118.18C694.736 1123 694.745 1127.83 694.753 1132.66C694.761 1136.89 694.768 1141.11 694.776 1145.34C694.777 1145.94 694.778 1146.54 694.779 1147.15C694.798 1157.22 694.818 1167.28 694.839 1177.35C694.85 1182.94 694.861 1188.53 694.87 1194.12C694.902 1214.99 694.954 1235.86 695.212 1256.73C695.227 1257.97 695.242 1259.21 695.257 1260.45C695.345 1267.82 695.452 1275.18 695.734 1282.54C695.752 1283.03 695.77 1283.52 695.789 1284.02C696.369 1297.65 700.86 1310.21 708.5 1321.5C708.733 1321.85 708.965 1322.19 709.205 1322.55C710.345 1324.19 711.562 1325.61 713 1327C713.165 1327.33 713.33 1327.66 713.5 1328C714.057 1328.32 714.057 1328.32 714.625 1328.66C716.65 1329.9 718.091 1331.47 719.531 1333.34C720.523 1334.53 721.146 1334.84 722.5 1335.5C723.756 1336.66 724.868 1337.83 725.906 1339.19C727.424 1341.01 729.203 1342.46 731 1344C734.507 1347.09 737.905 1350.28 741.302 1353.49C744.818 1356.81 748.349 1360.11 751.979 1363.3C752.439 1363.71 752.9 1364.11 753.375 1364.53C753.785 1364.89 754.195 1365.24 754.617 1365.61C755.5 1366.5 755.5 1366.5 755.5 1367.5C755.861 1367.61 756.222 1367.73 756.594 1367.84C758.281 1368.63 759.24 1369.64 760.5 1371C760.799 1371.28 761.098 1371.56 761.406 1371.84C762 1372.5 762 1372.5 762 1373.5C762.371 1373.61 762.743 1373.73 763.125 1373.84C764.5 1374.5 764.5 1374.5 765.432 1375.67C766.513 1377.02 767.599 1377.95 768.969 1379C770.774 1380.41 772.4 1381.86 774 1383.5C774.663 1384.09 775.33 1384.67 776 1385.25C777.567 1386.61 779.051 1388.01 780.5 1389.5C783.426 1392.5 786.482 1395.28 789.75 1397.91C790.162 1398.27 790.575 1398.63 791 1399C791 1399.33 791 1399.66 791 1400C791.284 1400.13 791.567 1400.25 791.859 1400.38C793.167 1401.09 794.148 1401.94 795.25 1402.94C795.626 1403.28 796.003 1403.62 796.391 1403.96C797.112 1404.64 797.822 1405.32 798.518 1406.02C799.468 1406.97 800.451 1407.85 801.469 1408.72C803.462 1410.45 805.31 1412.29 807.15 1414.18C808.462 1415.46 809.818 1416.61 811.25 1417.75C813.121 1419.24 814.819 1420.8 816.5 1422.5C817.877 1423.82 819.266 1425.13 820.656 1426.44C821.017 1426.78 821.377 1427.12 821.749 1427.47C824.56 1430.12 827.447 1432.67 830.375 1435.18C830.746 1435.5 831.118 1435.82 831.5 1436.16C831.882 1436.48 832.263 1436.81 832.656 1437.15C833.5 1438 833.5 1438 833.5 1439C833.861 1439.11 834.222 1439.23 834.594 1439.34C836.281 1440.13 837.24 1441.14 838.5 1442.5C838.949 1442.92 838.949 1442.92 839.406 1443.34C840 1444 840 1444 840 1445C840.371 1445.11 840.743 1445.23 841.125 1445.34C842.5 1446 842.5 1446 843.406 1447.14C844.976 1449.09 846.903 1450.48 848.867 1452.01C849.241 1452.33 849.615 1452.66 850 1453C850 1453.33 850 1453.66 850 1454C850.278 1454.11 850.557 1454.23 850.844 1454.34C851.997 1455 852.785 1455.74 853.697 1456.69C857.209 1460.22 861.055 1463.62 865 1466.66C865.33 1466.93 865.66 1467.21 866 1467.5C866 1467.83 866 1468.16 866 1468.5C866.284 1468.63 866.567 1468.75 866.859 1468.88C868.167 1469.59 869.148 1470.44 870.25 1471.44C870.626 1471.78 871.003 1472.12 871.391 1472.46C872.111 1473.14 872.82 1473.82 873.516 1474.52C874.477 1475.48 875.471 1476.37 876.5 1477.25C877.888 1478.46 879.222 1479.68 880.5 1481C882.537 1483.11 884.703 1484.94 886.989 1486.76C887.677 1487.32 888.341 1487.91 889 1488.5C889 1488.83 889 1489.16 889 1489.5C889.296 1489.63 889.593 1489.76 889.898 1489.9C891.04 1490.52 891.737 1491.15 892.625 1492.09C894.158 1493.67 895.755 1495.13 897.42 1496.56C899.032 1497.96 900.613 1499.39 902.195 1500.83C903.101 1501.64 904.013 1502.45 904.93 1503.25C905.386 1503.65 905.842 1504.06 906.312 1504.47C906.731 1504.83 907.15 1505.2 907.582 1505.58C908.5 1506.5 908.5 1506.5 908.5 1507.5C908.789 1507.53 909.077 1507.56 909.375 1507.59C910.5 1508 910.5 1508 911.398 1509.13C912.566 1510.58 913.792 1511.63 915.25 1512.78C916.934 1514.12 918.506 1515.46 920 1517C921.669 1518.71 923.381 1520.26 925.25 1521.75C927.119 1523.24 928.833 1524.79 930.5 1526.5C933.433 1529.49 936.481 1532.28 939.75 1534.91C940.162 1535.27 940.575 1535.63 941 1536C941 1536.33 941 1536.66 941 1537C941.309 1537.12 941.619 1537.25 941.938 1537.38C943 1538 943 1538 943.5 1539.03C943.665 1539.35 943.83 1539.67 944 1540C944.309 1540.07 944.619 1540.14 944.938 1540.22C946 1540.5 946 1540.5 946.893 1541.62C948.07 1543.09 949.306 1544.13 950.781 1545.28C952.453 1546.59 953.766 1547.78 955 1549.5C955.309 1549.65 955.619 1549.81 955.938 1549.97C957.422 1550.71 958.339 1551.81 959.5 1553C960.174 1553.59 960.851 1554.17 961.531 1554.75C963.052 1556.06 964.244 1557.43 965.5 1559C966.402 1559.83 967.333 1560.63 968.268 1561.43C969.769 1562.73 971.228 1564.08 972.688 1565.44C974.635 1567.24 976.587 1569.04 978.562 1570.81C978.954 1571.17 979.346 1571.52 979.75 1571.88C980.674 1572.71 981.602 1573.53 982.531 1574.35C983.042 1574.81 983.552 1575.26 984.062 1575.72C984.528 1576.13 984.993 1576.54 985.473 1576.97C986.5 1578 986.5 1578 986.5 1579C986.861 1579.11 987.222 1579.23 987.594 1579.34C989.281 1580.13 990.24 1581.14 991.5 1582.5C991.799 1582.78 992.098 1583.06 992.406 1583.34C993 1584 993 1584 993 1585C993.371 1585.11 993.743 1585.23 994.125 1585.34C995.5 1586 995.5 1586 996.414 1587.15C997.575 1588.59 998.798 1589.63 1000.25 1590.78C1001.94 1592.12 1003.49 1593.48 1005 1595C1006.63 1596.38 1008.32 1597.68 1010 1599C1010.42 1599.36 1010.42 1599.36 1010.86 1599.73C1014.47 1602.63 1019.88 1604.5 1024.5 1604.5C1030.29 1603.52 1034.68 1601.41 1039.31 1597.85C1040.5 1597 1040.5 1597 1042 1596.5C1042 1596.17 1042 1595.84 1042 1595.5C1042.83 1595 1043.67 1594.5 1044.5 1594C1045.34 1593.18 1046.18 1592.34 1047 1591.5C1047.67 1590.91 1048.35 1590.33 1049.03 1589.75C1050.55 1588.44 1051.75 1587.07 1053 1585.5C1053.86 1584.72 1054.75 1583.97 1055.64 1583.23C1056.35 1582.62 1057.03 1581.97 1057.69 1581.31C1058.88 1580.12 1060.1 1578.98 1061.34 1577.84C1061.73 1577.5 1062.11 1577.15 1062.51 1576.79C1063.5 1576 1063.5 1576 1064.5 1576C1064.6 1575.73 1064.71 1575.45 1064.82 1575.17C1065.75 1573.56 1067.06 1572.45 1068.44 1571.22C1068.73 1570.96 1069.02 1570.69 1069.31 1570.43C1069.91 1569.88 1070.51 1569.34 1071.12 1568.8C1072.2 1567.82 1073.27 1566.83 1074.35 1565.84C1077.91 1562.56 1081.5 1559.3 1085.16 1556.12C1086.23 1555.19 1087.24 1554.26 1088.25 1553.25C1089.63 1551.87 1091.1 1550.6 1092.57 1549.31C1093.6 1548.42 1094.55 1547.48 1095.5 1546.5C1097.59 1544.34 1099.83 1542.5 1102.19 1540.64C1103.54 1539.54 1103.54 1539.54 1104.58 1538.11C1104.88 1537.74 1105.19 1537.38 1105.5 1537C1106 1537 1106.49 1537 1107 1537C1107.2 1536.55 1107.2 1536.55 1107.41 1536.09C1108 1535 1108.55 1534.29 1109.5 1533.5C1109.83 1533.5 1110.16 1533.5 1110.5 1533.5C1110.5 1533.17 1110.5 1532.84 1110.5 1532.5C1111.15 1531.85 1111.15 1531.85 1112.09 1531.06C1114.03 1529.42 1115.89 1527.73 1117.75 1526C1119.82 1524.08 1121.91 1522.18 1124.05 1520.33C1125.16 1519.36 1126.27 1518.38 1127.38 1517.41C1127.73 1517.09 1128.09 1516.77 1128.46 1516.45C1129.16 1515.81 1129.84 1515.16 1130.51 1514.49C1131.46 1513.54 1132.45 1512.66 1133.47 1511.78C1135.52 1510 1137.41 1508.12 1139.28 1506.16C1140.5 1505 1140.5 1505 1141.5 1504.53C1142.59 1503.95 1143.05 1503.4 1143.81 1502.44C1144.4 1501.73 1144.4 1501.73 1145 1501C1145.33 1501 1145.66 1501 1146 1501C1146.17 1500.5 1146.33 1500.01 1146.5 1499.5C1148.22 1498 1148.22 1498 1149.5 1498C1149.61 1497.72 1149.71 1497.45 1149.82 1497.17C1150.73 1495.6 1151.98 1494.53 1153.31 1493.34C1153.58 1493.1 1153.86 1492.86 1154.13 1492.6C1155.89 1491.03 1157.66 1489.48 1159.43 1487.94C1160.83 1486.71 1162.21 1485.45 1163.59 1484.19C1163.84 1483.96 1164.09 1483.73 1164.35 1483.5C1165.51 1482.43 1166.64 1481.36 1167.74 1480.24C1169.57 1478.44 1171.55 1476.87 1173.53 1475.25C1175.02 1474.02 1175.02 1474.02 1176.38 1472.59C1177.5 1471.5 1177.5 1471.5 1178.5 1471.5C1178.61 1471.22 1178.72 1470.95 1178.83 1470.66C1179.71 1469.13 1180.91 1468.09 1182.22 1466.94C1182.48 1466.7 1182.75 1466.46 1183.02 1466.21C1183.58 1465.72 1184.13 1465.22 1184.68 1464.73C1185.92 1463.62 1187.15 1462.5 1188.38 1461.38C1189.88 1460 1191.4 1458.65 1192.94 1457.31C1195.05 1455.48 1197.09 1453.58 1199.13 1451.68C1200.87 1450.05 1202.66 1448.52 1204.5 1447C1205.01 1446.51 1205.51 1446.01 1206 1445.5C1208.09 1443.34 1210.33 1441.5 1212.69 1439.64C1214.04 1438.54 1214.04 1438.54 1215.08 1437.11C1215.38 1436.74 1215.69 1436.38 1216 1436C1216.5 1436 1216.99 1436 1217.5 1436C1217.7 1435.55 1217.7 1435.55 1217.91 1435.09C1218.5 1434 1219.05 1433.29 1220 1432.5C1220.33 1432.5 1220.66 1432.5 1221 1432.5C1221 1432.17 1221 1431.84 1221 1431.5C1223.24 1429.5 1223.24 1429.5 1224.5 1429.5C1224.62 1429.21 1224.74 1428.93 1224.86 1428.63C1225.64 1427.25 1226.56 1426.44 1227.75 1425.41C1228.2 1425.01 1228.65 1424.62 1229.11 1424.21C1229.57 1423.81 1230.03 1423.41 1230.5 1423C1231.33 1422.25 1232.17 1421.5 1233 1420.75C1233.41 1420.38 1233.82 1420.01 1234.24 1419.63C1235.1 1418.86 1235.96 1418.08 1236.82 1417.3C1240.47 1414.01 1240.47 1414.01 1242.16 1412.62C1243.51 1411.53 1243.51 1411.53 1244.69 1410.31C1245.77 1409.23 1246.87 1408.22 1248.03 1407.22C1249.41 1406.02 1250.73 1404.81 1252 1403.5C1253.56 1401.89 1255.18 1400.35 1256.84 1398.84C1257.23 1398.5 1257.61 1398.15 1258.01 1397.79C1259 1397 1259 1397 1260 1397C1260.12 1396.71 1260.24 1396.43 1260.36 1396.13C1261.14 1394.75 1262.06 1393.94 1263.25 1392.91C1263.92 1392.32 1263.92 1392.32 1264.6 1391.73C1265.29 1391.12 1265.29 1391.12 1266 1390.5C1267.3 1389.31 1268.59 1388.12 1269.89 1386.92C1270.9 1386.08 1271.8 1385.52 1273 1385C1273 1384.67 1273 1384.34 1273 1384C1273.84 1383.25 1274.71 1382.54 1275.59 1381.84C1277.52 1380.32 1279.28 1378.75 1281 1377C1281.74 1376.33 1282.49 1375.66 1283.25 1375C1284.89 1373.55 1286.47 1372.07 1288 1370.5C1288.83 1369.67 1289.67 1368.83 1290.5 1368C1291.12 1367.35 1291.12 1367.35 1291.75 1366.69C1293 1365.5 1293 1365.5 1294.25 1364.78C1295.57 1363.96 1296.35 1363.02 1297.3 1361.81C1298.53 1360.38 1299.96 1359.1 1301.5 1358C1301.83 1358 1302.16 1358 1302.5 1358C1302.61 1357.72 1302.72 1357.45 1302.83 1357.16C1303.72 1355.62 1304.93 1354.57 1306.25 1353.41C1306.52 1353.17 1306.78 1352.93 1307.06 1352.68C1307.61 1352.19 1308.16 1351.7 1308.71 1351.21C1309.86 1350.18 1311.01 1349.13 1312.16 1348.09C1313.56 1346.83 1314.97 1345.59 1316.41 1344.38C1317.38 1343.55 1318.28 1342.72 1319.19 1341.81C1320.71 1340.29 1322.32 1338.88 1323.93 1337.46C1324.75 1336.73 1325.54 1335.96 1326.31 1335.19C1327.27 1334.23 1328.24 1333.37 1329.28 1332.5C1330.4 1331.56 1331.19 1330.76 1332.09 1329.59C1333.12 1328.36 1333.51 1328.35 1335 1328C1335.34 1327.34 1335.67 1326.67 1336 1326C1336.5 1325.77 1336.5 1325.77 1337 1325.53C1338.38 1324.8 1338.45 1323.94 1339 1322.5C1339.3 1322.21 1339.6 1321.92 1339.91 1321.62C1341.18 1320.31 1341.9 1318.98 1342.75 1317.38C1343.48 1316.04 1344.25 1314.74 1345.03 1313.44C1346.59 1310.79 1347.94 1308.25 1348.67 1305.24C1349 1304 1349 1304 1349.72 1302.18C1350.5 1300.11 1350.97 1298.08 1351.32 1295.91C1351.42 1295.33 1351.42 1295.33 1351.51 1294.73C1352.22 1290 1352.28 1285.27 1352.33 1280.5C1352.34 1279.49 1352.36 1278.47 1352.38 1277.46C1352.42 1274.82 1352.45 1272.19 1352.48 1269.55C1352.5 1268.06 1352.52 1266.58 1352.54 1265.1C1352.64 1257.74 1352.7 1250.39 1352.76 1243.03C1352.77 1241.77 1352.78 1240.5 1352.79 1239.23C1353.13 1196.31 1353.21 1153.39 1353.31 1110.46C1353.32 1107.81 1353.33 1105.16 1353.33 1102.51C1353.34 1101.85 1353.34 1101.19 1353.34 1100.52C1353.36 1090.05 1353.4 1079.59 1353.43 1069.13C1353.47 1057.56 1353.5 1045.99 1353.53 1034.42C1353.54 1028.17 1353.56 1021.92 1353.58 1015.67C1353.6 1010.39 1353.62 1005.11 1353.62 999.834C1353.63 997.152 1353.63 994.47 1353.65 991.788C1353.66 989.329 1353.66 986.87 1353.66 984.411C1353.66 983.529 1353.67 982.646 1353.67 981.764C1353.94 968.407 1353.94 968.407 1348.7 956.672C1348.36 956.339 1348.36 956.339 1348 956C1347.83 955.505 1347.67 955.01 1347.5 954.5C1343.3 949.858 1337.63 947.664 1331.72 946.125C1331.19 945.98 1330.66 945.835 1330.11 945.686C1327.29 944.922 1324.46 944.275 1321.58 943.724C1320.17 943.431 1318.81 943.015 1317.44 942.562C1314.93 941.766 1312.43 941.087 1309.88 940.469C1307.41 939.869 1305 939.203 1302.6 938.357C1300.75 937.756 1298.85 937.334 1296.95 936.875C1295.69 936.55 1294.48 936.177 1293.25 935.75C1291.55 935.158 1289.85 934.702 1288.09 934.281C1286.02 933.78 1284.02 933.193 1282 932.5C1279.54 931.657 1277.08 930.996 1274.55 930.385C1270.15 929.295 1265.85 927.964 1261.56 926.5C1257.43 925.089 1253.25 923.985 1249 923C1249 922.505 1249 922.01 1249 921.5C1249.46 921.379 1249.92 921.258 1250.39 921.133C1256.15 919.608 1261.88 918.021 1267.56 916.219C1270.37 915.328 1273.18 914.558 1276.05 913.869C1278.13 913.339 1280.18 912.692 1282.24 912.049C1287.64 910.366 1293.08 908.829 1298.56 907.402C1303.78 906.041 1308.94 904.526 1314.09 902.894C1316.55 902.119 1319.04 901.473 1321.55 900.869C1323.62 900.341 1325.66 899.689 1327.7 899.049C1330.89 898.076 1334.11 897.206 1337.33 896.323C1347.98 893.409 1347.98 893.409 1358.56 890.219C1361.37 889.328 1364.19 888.557 1367.05 887.869C1369.12 887.341 1371.16 886.689 1373.2 886.049C1376.39 885.076 1379.61 884.206 1382.83 883.323C1392.92 880.583 1392.92 880.583 1402.93 877.572C1406.29 876.501 1409.65 875.557 1413.07 874.723C1418.14 873.487 1423.12 871.973 1428.09 870.394C1430.56 869.616 1433.05 868.976 1435.57 868.373C1437.58 867.848 1439.53 867.162 1441.49 866.486C1443.51 865.836 1445.55 865.349 1447.61 864.855C1448.81 864.549 1449.96 864.194 1451.12 863.781C1453.17 863.072 1455.24 862.544 1457.34 862.031C1462.82 860.689 1468.21 859.101 1473.59 857.394C1476.06 856.616 1478.55 855.976 1481.07 855.373C1483.08 854.848 1485.03 854.162 1486.99 853.486C1489.01 852.836 1491.05 852.349 1493.11 851.855C1494.31 851.549 1495.46 851.194 1496.62 850.781C1498.67 850.072 1500.74 849.544 1502.84 849.031C1507.62 847.861 1512.34 846.532 1517.03 845.045C1530.58 840.754 1530.58 840.754 1535.12 842.812C1538.25 844.61 1540.05 846.491 1541 850C1541.27 852.025 1541.42 854.055 1541.55 856.094C1541.6 856.709 1541.64 857.324 1541.68 857.958C1542.15 865.391 1542.14 872.821 1542.13 880.266C1542.12 882.409 1542.13 884.552 1542.13 886.694C1542.13 890.438 1542.13 894.181 1542.13 897.924C1542.12 903.495 1542.12 909.065 1542.12 914.636C1542.13 924.032 1542.13 933.429 1542.12 942.826C1542.12 952.178 1542.11 961.531 1542.11 970.883C1542.11 971.469 1542.11 972.054 1542.11 972.657C1542.11 975.035 1542.11 977.412 1542.11 979.79C1542.11 1002.11 1542.11 1024.44 1542.1 1046.76C1542.1 1066.38 1542.09 1086.01 1542.09 1105.64C1542.09 1106.89 1542.09 1108.14 1542.09 1109.39C1542.09 1110 1542.09 1110.62 1542.09 1111.26C1542.09 1114.37 1542.09 1117.49 1542.09 1120.6C1542.09 1121.22 1542.09 1121.83 1542.09 1122.47C1542.09 1139.03 1542.09 1155.6 1542.09 1172.16C1542.09 1172.76 1542.09 1173.35 1542.09 1173.96C1542.09 1176.35 1542.09 1178.74 1542.09 1181.13C1542.08 1189.27 1542.08 1197.4 1542.08 1205.53C1542.08 1235.69 1542.07 1265.84 1542 1296C1542 1296.52 1542 1297.03 1542 1297.57C1541.97 1311.03 1541.93 1324.49 1541.87 1337.95C1541.87 1338.67 1541.87 1338.67 1541.86 1339.41C1541.86 1340.14 1541.86 1340.14 1541.86 1340.87C1541.84 1344.19 1541.83 1347.51 1541.82 1350.83C1541.81 1354.81 1541.8 1358.79 1541.77 1362.77C1541.76 1364.77 1541.75 1366.78 1541.75 1368.79C1541.71 1390.98 1541.71 1390.98 1538.06 1400.94C1537.82 1401.66 1537.82 1401.66 1537.57 1402.4C1535.07 1409.57 1530.99 1415.43 1525.26 1420.4C1524.12 1421.4 1523.06 1422.43 1522 1423.5C1521.35 1424.08 1520.69 1424.65 1520.03 1425.22C1518.05 1426.94 1516.21 1428.77 1514.38 1430.66C1513.16 1431.85 1511.92 1433.01 1510.66 1434.16C1510.27 1434.5 1509.89 1434.85 1509.49 1435.21C1508.5 1436 1508.5 1436 1507.5 1436C1507.39 1436.31 1507.27 1436.62 1507.16 1436.94C1506.31 1438.31 1505.47 1438.41 1504 1439C1503.66 1439.66 1503.33 1440.33 1503 1441C1502.21 1441.87 1502.21 1441.87 1501.3 1442.73C1500.97 1443.04 1500.64 1443.35 1500.29 1443.66C1499.78 1444.14 1499.78 1444.14 1499.25 1444.62C1498.91 1444.95 1498.56 1445.27 1498.21 1445.61C1495.63 1448 1495.63 1448 1494.5 1448C1494.5 1448.33 1494.5 1448.66 1494.5 1449C1493.66 1449.75 1492.79 1450.46 1491.91 1451.16C1489.98 1452.68 1488.22 1454.25 1486.5 1456C1485.75 1456.68 1484.99 1457.36 1484.22 1458.03C1482.36 1459.66 1480.62 1461.36 1478.91 1463.12C1477.34 1464.65 1475.72 1466.09 1474.07 1467.53C1473.2 1468.32 1472.39 1469.11 1471.59 1469.97C1470.46 1471.04 1469.95 1471.15 1468.5 1471.5C1467.95 1472.44 1467.95 1472.44 1467.5 1473.5C1466.75 1474.38 1466.75 1474.38 1466 1475C1465.67 1475 1465.34 1475 1465 1475C1465 1475.33 1465 1475.66 1465 1476C1464.35 1476.65 1464.35 1476.65 1463.41 1477.44C1461.47 1479.08 1459.61 1480.77 1457.75 1482.5C1455.68 1484.42 1453.59 1486.32 1451.46 1488.17C1450.33 1489.15 1449.21 1490.14 1448.09 1491.12C1447.55 1491.61 1447.55 1491.61 1446.99 1492.1C1445.72 1493.26 1444.53 1494.47 1443.33 1495.7C1441.59 1497.4 1439.71 1498.86 1437.81 1500.36C1436.46 1501.46 1436.46 1501.46 1435.42 1502.86C1434.5 1504 1434.5 1504 1433 1504.5C1432.4 1505.21 1431.81 1505.92 1431.23 1506.65C1429.99 1508.1 1428.56 1509.39 1427 1510.5C1426.67 1510.5 1426.34 1510.5 1426 1510.5C1425.89 1510.78 1425.79 1511.05 1425.68 1511.33C1424.77 1512.9 1423.52 1513.97 1422.19 1515.16C1421.92 1515.4 1421.65 1515.64 1421.37 1515.89C1420.84 1516.37 1420.29 1516.85 1419.75 1517.33C1419.09 1517.92 1418.44 1518.51 1417.79 1519.1C1416.24 1520.49 1414.9 1521.63 1413 1522.5C1413 1522.83 1413 1523.16 1413 1523.5C1412.16 1524.25 1411.29 1524.96 1410.41 1525.66C1408.48 1527.18 1406.72 1528.75 1405 1530.5C1404.26 1531.17 1403.51 1531.84 1402.75 1532.5C1401.46 1533.63 1400.22 1534.76 1399.03 1536C1398 1537 1398 1537 1397 1537C1396.89 1537.28 1396.78 1537.56 1396.67 1537.84C1395.78 1539.38 1394.64 1540.35 1393.31 1541.53C1392.77 1542.02 1392.23 1542.51 1391.68 1542.99C1391.4 1543.24 1391.13 1543.49 1390.84 1543.75C1389.76 1544.71 1388.7 1545.69 1387.64 1546.67C1381.64 1552.2 1381.64 1552.2 1378.66 1554.56C1377.46 1555.5 1377.46 1555.5 1376.34 1556.66C1374.92 1558.08 1373.44 1559.38 1371.92 1560.69C1371.26 1561.27 1370.62 1561.88 1370 1562.5C1368.12 1564.38 1366.08 1566.1 1364.03 1567.8C1362.66 1568.95 1361.5 1570 1360.38 1571.41C1359.5 1572.5 1359.5 1572.5 1358 1573C1357.16 1574 1356.33 1575 1355.5 1576C1355.17 1576 1354.84 1576 1354.5 1576C1354.5 1576.33 1354.5 1576.66 1354.5 1577C1352.26 1579 1352.26 1579 1351 1579C1350.88 1579.29 1350.76 1579.57 1350.64 1579.87C1349.86 1581.25 1348.94 1582.06 1347.75 1583.09C1347.3 1583.49 1346.85 1583.88 1346.39 1584.29C1345.93 1584.69 1345.47 1585.09 1345 1585.5C1344.17 1586.25 1343.33 1587 1342.5 1587.75C1342.09 1588.12 1341.68 1588.49 1341.26 1588.87C1340.4 1589.64 1339.54 1590.42 1338.68 1591.2C1335.03 1594.49 1335.03 1594.49 1333.34 1595.88C1331.95 1597 1331.95 1597 1330.62 1598.41C1329.5 1599.5 1329.5 1599.5 1328.5 1599.5C1328.37 1599.79 1328.25 1600.09 1328.12 1600.39C1327.42 1601.64 1326.69 1602.31 1325.59 1603.22C1323.98 1604.58 1322.47 1605.98 1321 1607.5C1320.67 1607.83 1320.34 1608.16 1320 1608.5C1319.5 1608.5 1319.01 1608.5 1318.5 1608.5C1318.38 1608.81 1318.25 1609.12 1318.12 1609.44C1317.4 1610.68 1316.81 1610.98 1315.5 1611.5C1315.5 1611.83 1315.5 1612.16 1315.5 1612.5C1314.84 1613.17 1314.84 1613.17 1313.88 1613.97C1312.05 1615.52 1310.26 1617.12 1308.5 1618.75C1306.5 1620.6 1304.48 1622.41 1302.41 1624.18C1301.69 1624.83 1301.01 1625.5 1300.33 1626.19C1298.69 1627.8 1296.93 1629.23 1295.14 1630.67C1294.02 1631.59 1293.03 1632.45 1292.16 1633.62C1291.5 1634.5 1291.5 1634.5 1290 1635C1289.72 1635.35 1289.44 1635.7 1289.16 1636.06C1287.65 1637.94 1285.93 1639.55 1284 1641C1283.67 1641 1283.34 1641 1283 1641C1282.88 1641.29 1282.77 1641.57 1282.64 1641.87C1281.85 1643.26 1280.9 1644.1 1279.69 1645.16C1279.01 1645.75 1279.01 1645.75 1278.32 1646.36C1277.67 1646.92 1277.67 1646.92 1277 1647.5C1276.36 1648.05 1275.73 1648.6 1275.09 1649.16C1274.78 1649.43 1274.46 1649.71 1274.13 1649.99C1272.35 1651.57 1270.61 1653.2 1268.87 1654.82C1267.57 1656.03 1266.26 1657.21 1264.89 1658.34C1263.86 1659.2 1262.93 1660.04 1262 1661C1261.39 1661.55 1260.77 1662.09 1260.16 1662.62C1259.81 1662.93 1259.46 1663.24 1259.09 1663.55C1258.38 1664.17 1257.66 1664.8 1256.94 1665.42C1255.43 1666.73 1253.95 1668.03 1252.56 1669.47C1251.5 1670.5 1251.5 1670.5 1250.5 1670.5C1250.39 1670.78 1250.27 1671.06 1250.16 1671.35C1249.32 1672.82 1248.26 1673.75 1247 1674.88C1246.33 1675.47 1246.33 1675.47 1245.66 1676.09C1244.5 1677 1244.5 1677 1243.5 1677C1243.37 1677.3 1243.24 1677.59 1243.11 1677.9C1242.45 1679.1 1241.8 1679.72 1240.75 1680.59C1239.16 1681.94 1237.6 1683.29 1236.06 1684.69C1235.43 1685.26 1235.43 1685.26 1234.78 1685.84C1234.36 1686.22 1233.94 1686.61 1233.5 1687C1232.68 1687.74 1231.85 1688.48 1231.03 1689.22C1230.19 1689.98 1229.34 1690.74 1228.5 1691.5C1228.02 1691.93 1227.54 1692.36 1227.05 1692.81C1226.57 1693.24 1226.09 1693.68 1225.59 1694.12C1225.16 1694.52 1224.72 1694.91 1224.27 1695.32C1222.98 1696.52 1221.74 1697.76 1220.5 1699C1218.69 1700.5 1218.69 1700.5 1217.5 1700.5C1217.37 1700.79 1217.25 1701.09 1217.12 1701.39C1216.42 1702.64 1215.69 1703.31 1214.59 1704.22C1213.44 1705.19 1212.35 1706.15 1211.28 1707.22C1210.1 1708.4 1208.89 1709.53 1207.66 1710.66C1207.27 1711 1206.89 1711.35 1206.49 1711.71C1205.5 1712.5 1205.5 1712.5 1204.5 1712.5C1204.5 1712.83 1204.5 1713.16 1204.5 1713.5C1203.84 1714.17 1203.84 1714.17 1202.88 1714.97C1200.75 1716.77 1198.69 1718.65 1196.65 1720.55C1195.15 1721.93 1193.6 1723.23 1192 1724.5C1191.7 1724.8 1191.4 1725.1 1191.09 1725.41C1188.91 1727.59 1186.51 1729.56 1184.16 1731.56C1182.29 1733.16 1180.59 1734.9 1178.88 1736.66C1177.66 1737.85 1176.42 1739.01 1175.16 1740.16C1174.77 1740.5 1174.39 1740.85 1173.99 1741.21C1173 1742 1173 1742 1172 1742C1171.87 1742.3 1171.74 1742.6 1171.61 1742.9C1170.95 1744.09 1170.32 1744.7 1169.28 1745.56C1167.57 1747.01 1165.9 1748.49 1164.25 1750C1162.69 1751.42 1161.13 1752.84 1159.53 1754.22C1157.8 1755.72 1156.1 1757.26 1154.41 1758.81C1154.16 1759.04 1153.91 1759.27 1153.65 1759.5C1152.45 1760.6 1151.29 1761.71 1150.15 1762.87C1149 1764 1149 1764 1147.72 1764.75C1146.44 1765.44 1146.44 1765.44 1145.62 1766.62C1144.3 1768.25 1142.8 1769.35 1141.11 1770.58C1139.95 1771.48 1139.95 1771.48 1139.02 1772.72C1137.92 1774.1 1136.76 1775.07 1135.38 1776.16C1133.26 1777.85 1131.33 1779.61 1129.45 1781.55C1127.88 1783.12 1126.19 1784.55 1124.5 1786C1123.78 1786.62 1123.06 1787.25 1122.34 1787.88C1121.87 1788.29 1121.87 1788.29 1121.38 1788.71C1120.15 1789.82 1119 1791 1117.85 1792.19C1116.21 1793.79 1114.46 1795.22 1112.69 1796.67C1111.21 1797.88 1109.82 1799.13 1108.5 1800.5C1106.94 1802.11 1105.32 1803.65 1103.66 1805.16C1103.27 1805.5 1102.89 1805.85 1102.49 1806.21C1101.5 1807 1101.5 1807 1100.5 1807C1100.33 1807.5 1100.17 1807.99 1100 1808.5C1099.27 1809.24 1099.27 1809.24 1098.31 1810.03C1096.59 1811.49 1094.91 1812.98 1093.25 1814.5C1091.33 1816.25 1089.4 1817.98 1087.43 1819.67C1086.7 1820.32 1086.01 1821 1085.33 1821.69C1083.7 1823.3 1081.96 1824.73 1080.19 1826.17C1078.71 1827.38 1077.32 1828.63 1076 1830C1074.44 1831.61 1072.82 1833.15 1071.16 1834.66C1070.77 1835 1070.39 1835.35 1069.99 1835.71C1069 1836.5 1069 1836.5 1068 1836.5C1067.89 1836.81 1067.77 1837.12 1067.66 1837.44C1066.81 1838.81 1065.97 1838.91 1064.5 1839.5C1064.3 1839.93 1064.3 1839.93 1064.1 1840.37C1063.26 1841.95 1062.01 1842.99 1060.69 1844.16C1060.42 1844.4 1060.15 1844.64 1059.87 1844.89C1059.34 1845.37 1058.79 1845.85 1058.25 1846.33C1057.59 1846.92 1056.94 1847.51 1056.29 1848.1C1054.74 1849.49 1053.4 1850.63 1051.5 1851.5C1051.5 1851.83 1051.5 1852.16 1051.5 1852.5C1050.66 1853.25 1049.79 1853.96 1048.91 1854.66C1047.4 1855.84 1046 1857 1044.66 1858.37C1043.5 1859.5 1043.5 1859.5 1042 1860C1041.66 1860.66 1041.33 1861.33 1041 1862C1040.12 1862.87 1040.12 1862.87 1039.09 1863.72C1037.48 1865.08 1035.97 1866.48 1034.5 1868C1034.17 1868.33 1033.84 1868.66 1033.5 1869C1033 1869 1032.51 1869 1032 1869C1031.85 1869.43 1031.85 1869.43 1031.69 1869.88C1030.6 1871.66 1028.96 1872.63 1027.03 1873.38C1023.07 1873.85 1019.77 1873.1 1016.49 1870.79C1015.13 1869.64 1013.9 1868.4 1012.66 1867.12C1011.59 1866.09 1010.81 1865.63 1009.5 1865C1008.82 1864.35 1008.16 1863.68 1007.5 1863C1006.56 1862.16 1005.6 1861.33 1004.64 1860.5C1002.96 1859.03 1001.3 1857.52 999.648 1856.01C998.53 1854.99 998.53 1854.99 997.352 1854.18C997.071 1853.96 996.79 1853.73 996.5 1853.5C996.5 1853.17 996.5 1852.84 996.5 1852.5C996.217 1852.38 995.934 1852.25 995.643 1852.12C994.322 1851.4 993.331 1850.54 992.219 1849.53C991.837 1849.19 991.454 1848.84 991.061 1848.49C990.439 1847.91 989.824 1847.32 989.225 1846.72C988.41 1845.91 987.557 1845.16 986.688 1844.41C985.173 1843.09 983.661 1841.77 982.156 1840.44C981.804 1840.13 981.451 1839.82 981.088 1839.5C979.854 1838.37 978.683 1837.18 977.5 1836C976.206 1834.76 974.9 1833.54 973.594 1832.31C973.089 1831.84 973.089 1831.84 972.573 1831.35C970.558 1829.46 968.511 1827.62 966.425 1825.81C964.69 1824.29 963.003 1822.72 961.307 1821.17C960.009 1819.98 960.009 1819.98 958.584 1818.91C958.226 1818.61 957.869 1818.31 957.5 1818C957.5 1817.67 957.5 1817.34 957.5 1817C957.217 1816.88 956.934 1816.75 956.643 1816.62C955.322 1815.9 954.331 1815.04 953.219 1814.03C952.837 1813.69 952.454 1813.34 952.061 1812.99C950.763 1811.78 949.533 1810.53 948.312 1809.25C947.083 1807.99 947.083 1807.99 945.75 1807.25C944.249 1806.35 943.206 1805.27 942 1804C941.588 1803.59 941.175 1803.18 940.75 1802.75C939.949 1801.95 939.15 1801.15 938.354 1800.34C936.963 1798.96 935.539 1797.63 934.094 1796.31C933.832 1796.07 933.57 1795.83 933.301 1795.59C929.725 1792.25 929.725 1792.25 925.891 1789.22C925.597 1788.98 925.303 1788.74 925 1788.5C925 1788.17 925 1787.84 925 1787.5C924.586 1787.32 924.586 1787.32 924.164 1787.14C922.716 1786.34 921.602 1785.36 920.375 1784.25C919.929 1783.85 919.483 1783.46 919.023 1783.05C918 1782 918 1782 918 1781C917.639 1780.89 917.278 1780.77 916.906 1780.66C915.192 1779.86 914.311 1778.87 913 1777.5C911.89 1776.5 910.767 1775.51 909.641 1774.53C908.383 1773.39 907.198 1772.2 906 1771C904.727 1769.78 903.442 1768.58 902.156 1767.38C901.801 1767.04 901.446 1766.71 901.08 1766.37C898.416 1763.88 895.721 1761.43 893 1759C891.72 1757.84 890.441 1756.68 889.162 1755.52C888.335 1754.79 887.478 1754.1 886.604 1753.43C886.239 1753.12 885.875 1752.82 885.5 1752.5C885.5 1752.17 885.5 1751.84 885.5 1751.5C885.078 1751.31 885.078 1751.31 884.646 1751.12C883.308 1750.4 882.289 1749.52 881.156 1748.5C880.566 1747.97 880.566 1747.97 879.963 1747.44C879 1746.5 879 1746.5 878.5 1745.5C878.129 1745.28 877.757 1745.07 877.375 1744.84C875.826 1743.89 874.771 1742.8 873.5 1741.5C872.827 1740.9 872.15 1740.31 871.469 1739.72C870.091 1738.52 868.768 1737.31 867.5 1736C864.308 1732.76 860.928 1729.73 857.5 1726.75C855.826 1725.29 854.157 1723.82 852.5 1722.34C852.026 1721.92 851.551 1721.5 851.062 1721.07C850 1720 850 1720 850 1719C849.551 1718.92 849.551 1718.92 849.094 1718.84C847.844 1718.45 847.312 1718.02 846.5 1717C846.5 1716.67 846.5 1716.34 846.5 1716C846.213 1715.87 845.926 1715.74 845.631 1715.61C844.405 1714.95 843.454 1714.2 842.406 1713.28C842.059 1712.98 841.711 1712.68 841.354 1712.38C840.5 1711.5 840.5 1711.5 840 1710C839.618 1709.86 839.237 1709.71 838.844 1709.56C837.5 1709 837.5 1709 836.58 1707.85C835.122 1706.03 833.373 1704.78 831.523 1703.38C831.186 1703.09 830.848 1702.8 830.5 1702.5C830.5 1702.17 830.5 1701.84 830.5 1701.5C830.222 1701.39 829.943 1701.27 829.656 1701.16C828.503 1700.5 827.715 1699.76 826.803 1698.81C823.198 1695.18 819.239 1691.79 815.25 1688.59C814.838 1688.23 814.425 1687.87 814 1687.5C814 1687.17 814 1686.84 814 1686.5C813.717 1686.38 813.434 1686.25 813.143 1686.12C811.822 1685.4 810.831 1684.54 809.719 1683.53C809.337 1683.19 808.954 1682.84 808.561 1682.49C807.94 1681.91 807.325 1681.32 806.727 1680.72C805.901 1679.9 805.037 1679.14 804.156 1678.38C803.806 1678.07 803.455 1677.76 803.094 1677.45C802.376 1676.83 801.657 1676.2 800.938 1675.58C800.597 1675.29 800.257 1674.99 799.906 1674.69C799.6 1674.42 799.294 1674.16 798.979 1673.89C797.777 1672.8 796.647 1671.65 795.5 1670.5C794.123 1669.18 792.734 1667.87 791.344 1666.56C790.983 1666.22 790.623 1665.88 790.251 1665.53C788.182 1663.58 786.081 1661.68 783.934 1659.82C782.296 1658.38 780.706 1656.9 779.113 1655.42C778.049 1654.43 776.997 1653.5 775.82 1652.65C775.55 1652.43 775.279 1652.22 775 1652C775 1651.67 775 1651.34 775 1651C774.718 1650.88 774.435 1650.75 774.145 1650.62C772.819 1649.9 771.81 1649.04 770.688 1648.03C770.299 1647.69 769.911 1647.34 769.512 1646.99C768.5 1646 768.5 1646 767.5 1644.5C767.118 1644.27 766.737 1644.05 766.344 1643.81C764.801 1642.88 763.76 1641.79 762.5 1640.5C761.52 1639.63 760.528 1638.77 759.531 1637.92C758.306 1636.83 757.162 1635.66 756 1634.5C754.706 1633.26 753.4 1632.04 752.094 1630.81C751.757 1630.5 751.42 1630.18 751.073 1629.85C748.76 1627.68 746.398 1625.58 744 1623.5C743.081 1622.7 742.164 1621.9 741.25 1621.09C740.608 1620.53 740.608 1620.53 739.953 1619.96C739 1619 739 1619 739 1618C738.722 1617.97 738.443 1617.94 738.156 1617.91C736.866 1617.45 736.233 1616.82 735.311 1615.83C733.851 1614.34 732.262 1612.98 730.701 1611.59C729.174 1610.2 727.737 1608.74 726.297 1607.27C725.004 1606 723.662 1604.88 722.25 1603.75C720.379 1602.26 718.681 1600.7 717 1599C715.707 1597.76 714.4 1596.54 713.094 1595.31C712.757 1595 712.42 1594.68 712.073 1594.35C709.76 1592.18 707.398 1590.08 705 1588C704.081 1587.2 703.164 1586.4 702.25 1585.59C701.608 1585.03 701.608 1585.03 700.953 1584.46C700 1583.5 700 1583.5 700 1582.5C699.639 1582.39 699.278 1582.27 698.906 1582.16C697.192 1581.36 696.311 1580.37 695 1579C694.255 1578.33 693.504 1577.66 692.75 1577C691.106 1575.55 689.549 1574.05 688 1572.5C686.375 1571.04 684.72 1569.61 683.053 1568.2C681.286 1566.7 679.619 1565.16 678 1563.5C675.074 1560.5 672.018 1557.72 668.75 1555.09C668.338 1554.73 667.925 1554.37 667.5 1554C667.5 1553.67 667.5 1553.34 667.5 1553C667.217 1552.88 666.934 1552.75 666.643 1552.62C665.322 1551.9 664.331 1551.04 663.219 1550.03C662.837 1549.69 662.454 1549.34 662.061 1548.99C661.443 1548.41 660.832 1547.83 660.238 1547.23C659.037 1546.04 657.718 1544.99 656.42 1543.91C655.483 1542.98 655.074 1542.17 654.5 1541C654.108 1540.85 653.716 1540.69 653.312 1540.53C652 1540 652 1540 651.098 1538.86C649.527 1536.91 647.6 1535.53 645.633 1533.99C645.072 1533.5 645.072 1533.5 644.5 1533C644.5 1532.67 644.5 1532.34 644.5 1532C644.207 1531.87 643.914 1531.74 643.613 1531.6C642.451 1530.97 641.647 1530.3 640.695 1529.38C640.359 1529.07 640.022 1528.75 639.676 1528.42C639.329 1528.08 638.982 1527.75 638.625 1527.41C635.97 1524.87 633.276 1522.4 630.5 1520C629.495 1519.12 628.496 1518.23 627.5 1517.34C626.788 1516.71 626.788 1516.71 626.063 1516.07C625 1515 625 1515 625 1514C624.711 1513.97 624.423 1513.94 624.125 1513.91C623 1513.5 623 1513.5 622.102 1512.37C620.934 1510.92 619.708 1509.87 618.25 1508.72C616.566 1507.38 614.994 1506.04 613.5 1504.5C611.831 1502.79 610.119 1501.24 608.25 1499.75C606.381 1498.26 604.668 1496.71 603 1495C599.981 1491.93 596.916 1488.98 593.5 1486.34C593.17 1486.07 592.84 1485.79 592.5 1485.5C592.5 1485.17 592.5 1484.84 592.5 1484.5C592.191 1484.38 591.881 1484.25 591.563 1484.12C590.5 1483.5 590.5 1483.5 590 1482.47C589.835 1482.15 589.67 1481.83 589.5 1481.5C589.191 1481.43 588.881 1481.36 588.563 1481.28C587.5 1481 587.5 1481 586.607 1479.88C585.43 1478.41 584.194 1477.37 582.719 1476.22C581.047 1474.91 579.734 1473.72 578.5 1472C578.036 1471.77 578.036 1471.77 577.563 1471.53C576.078 1470.79 575.161 1469.69 574 1468.5C573.338 1467.91 572.671 1467.33 572 1466.75C570.433 1465.39 568.95 1463.99 567.5 1462.5C564.488 1459.42 561.415 1456.48 558 1453.84C557.67 1453.57 557.34 1453.29 557 1453C557 1452.67 557 1452.34 557 1452C556.716 1451.87 556.432 1451.75 556.139 1451.62C554.843 1450.91 553.873 1450.08 552.781 1449.09C552.386 1448.74 551.99 1448.38 551.582 1448.01C550.358 1446.87 549.183 1445.68 548 1444.5C546.969 1443.6 545.931 1442.71 544.885 1441.82C544 1441 544 1441 543 1439.5C542.618 1439.27 542.237 1439.05 541.844 1438.81C539.8 1437.58 538.264 1436.29 537.5 1434C537.211 1433.86 536.923 1433.71 536.625 1433.56C535.118 1432.81 534.189 1431.69 533 1430.5C532.093 1429.74 531.176 1428.99 530.25 1428.25C528.381 1426.76 526.672 1425.21 525 1423.5C524.635 1423.15 524.27 1422.79 523.895 1422.43C521.659 1420.25 519.65 1418.02 517.777 1415.53C517.117 1414.65 516.407 1413.82 515.688 1413C514.187 1411.1 513.094 1409.15 512 1407C511.572 1406.17 511.572 1406.17 511.135 1405.32C510.828 1404.71 510.523 1404.09 510.219 1403.47C509.94 1402.91 509.661 1402.34 509.373 1401.76C506.252 1394.2 506.18 1386.76 506.142 1378.7C506.133 1377.69 506.122 1376.67 506.112 1375.66C506.065 1371.33 506.038 1367.01 506.015 1362.68C506 1359.89 505.981 1357.1 505.961 1354.32C505.855 1338.81 505.79 1323.31 505.734 1307.8C505.725 1305.41 505.716 1303.01 505.707 1300.62C505.55 1259.58 505.47 1218.55 505.435 1067.97C505.438 1052.88 505.437 1037.79 505.435 1022.71C505.432 1004.8 505.431 986.889 505.433 968.979C505.433 967.054 505.433 965.13 505.433 963.205C505.433 962.732 505.433 962.259 505.433 961.771C505.434 955.281 505.433 948.79 505.432 942.299C505.428 919.884 505.44 897.469 505.492 875.055C505.497 872.66 505.503 870.266 505.507 867.872C505.525 858.816 505.551 849.76 505.597 840.704C505.601 839.965 505.605 839.226 505.609 838.486C505.611 838.124 505.612 837.762 505.614 837.388C505.627 834.884 505.634 832.379 505.639 829.875C505.646 826.571 505.663 823.267 505.687 819.963C505.694 818.766 505.698 817.569 505.698 816.372C505.705 802.459 505.705 802.459 509.188 797.969C511.774 796.06 513.874 794.756 517.031 794C517.697 793.835 518.362 793.669 519.027 793.502C519.358 793.42 519.69 793.337 520.031 793.252C521.484 792.874 522.912 792.422 524.344 791.969C526.866 791.178 529.398 790.511 531.965 789.885C536.888 788.651 541.714 787.121 546.545 785.574C549.249 784.715 551.961 783.976 554.723 783.322C556.295 782.926 557.805 782.404 559.336 781.873C560.67 781.445 562.013 781.111 563.375 780.781C565.528 780.259 567.637 779.665 569.75 779C572.304 778.198 574.865 777.519 577.465 776.885C582.388 775.651 587.214 774.121 592.045 772.574C594.749 771.715 597.461 770.976 600.223 770.322C601.795 769.926 603.305 769.404 604.836 768.873C606.17 768.445 607.513 768.111 608.875 767.781C611.028 767.259 613.137 766.665 615.25 766C617.804 765.198 620.365 764.519 622.965 763.885C627.888 762.651 632.714 761.121 637.545 759.574C640.249 758.715 642.961 757.976 645.723 757.322C647.295 756.926 648.805 756.404 650.336 755.873C651.67 755.445 653.013 755.111 654.375 754.781C656.528 754.259 658.637 753.665 660.75 753C663.353 752.181 665.966 751.499 668.617 750.857C670.222 750.442 671.769 749.917 673.334 749.373C674.679 748.943 676.033 748.611 677.406 748.281C679.479 747.78 681.484 747.193 683.5 746.5C686.008 745.638 688.524 744.975 691.102 744.357C692.336 744.042 693.518 743.673 694.719 743.25C696.511 742.626 698.303 742.188 700.156 741.781C702.849 741.183 705.408 740.39 708.012 739.486C710.016 738.831 712.05 738.349 714.1 737.857C715.344 737.54 716.538 737.171 717.75 736.75C719.452 736.158 721.154 735.702 722.906 735.281C724.979 734.78 726.984 734.193 729 733.5C731.508 732.638 734.024 731.975 736.602 731.357C737.836 731.042 739.018 730.673 740.219 730.25C742.011 729.626 743.803 729.188 745.656 728.781C748.349 728.183 750.908 727.39 753.512 726.486C755.516 725.831 757.55 725.349 759.6 724.857C760.844 724.54 762.038 724.171 763.25 723.75C764.952 723.158 766.654 722.702 768.406 722.281C770.479 721.78 772.484 721.193 774.5 720.5C777.008 719.638 779.524 718.975 782.102 718.357C783.336 718.042 784.518 717.673 785.719 717.25C787.521 716.621 789.323 716.188 791.188 715.781C793.776 715.207 796.174 714.421 798.648 713.48C800.456 712.838 802.286 712.401 804.15 711.955C810.05 710.504 815.931 708.932 821.67 706.934C823.62 706.298 825.606 705.836 827.6 705.357C828.844 705.04 830.038 704.671 831.25 704.25C832.952 703.658 834.654 703.202 836.406 702.781C838.479 702.28 840.484 701.693 842.5 701C844.87 700.19 847.235 699.542 849.668 698.955C855.559 697.492 861.435 695.93 867.17 693.934C869.12 693.298 871.106 692.836 873.1 692.357C874.344 692.04 875.538 691.671 876.75 691.25C878.452 690.658 880.154 690.202 881.906 689.781C883.979 689.28 885.984 688.693 888 688C890.37 687.19 892.735 686.542 895.168 685.955C901.063 684.491 906.94 682.924 912.68 680.932C914.578 680.311 916.507 679.854 918.447 679.385C922.503 678.38 926.494 677.17 930.47 675.891C934.06 674.737 937.632 673.68 941.3 672.802C945.915 671.682 950.453 670.281 955.007 668.938C957.251 668.28 959.5 667.639 961.75 667C964.986 666.08 968.218 665.145 971.447 664.197C976.795 662.627 982.158 661.125 987.539 659.668C992.422 658.346 997.266 656.924 1002.09 655.394C1004.55 654.619 1007.03 653.974 1009.55 653.369C1011.63 652.839 1013.68 652.192 1015.74 651.549C1021.14 649.866 1026.58 648.329 1032.06 646.902C1037.28 645.541 1042.44 644.027 1047.59 642.394C1050.06 641.616 1052.55 640.976 1055.07 640.373C1057.08 639.848 1059.03 639.162 1060.99 638.486C1063.01 637.836 1065.05 637.349 1067.11 636.855C1068.31 636.549 1069.46 636.194 1070.62 635.781C1072.67 635.072 1074.74 634.544 1076.84 634.031C1082.32 632.689 1087.71 631.101 1093.09 629.394C1095.56 628.616 1098.05 627.976 1100.57 627.373C1102.58 626.848 1104.53 626.162 1106.49 625.486C1108.51 624.836 1110.55 624.349 1112.61 623.855C1113.81 623.549 1114.96 623.194 1116.12 622.781C1118.17 622.072 1120.24 621.544 1122.34 621.031C1127.82 619.689 1133.21 618.101 1138.59 616.394C1141.06 615.616 1143.55 614.976 1146.07 614.373C1148.08 613.848 1150.03 613.162 1151.99 612.486C1154.01 611.836 1156.05 611.349 1158.11 610.855C1159.31 610.549 1160.46 610.194 1161.62 609.781C1163.67 609.072 1165.74 608.544 1167.84 608.031C1173.32 606.689 1178.71 605.101 1184.09 603.394C1186.56 602.616 1189.05 601.976 1191.57 601.373C1193.58 600.848 1195.53 600.162 1197.49 599.486C1199.51 598.836 1201.55 598.349 1203.61 597.855C1204.81 597.549 1205.96 597.194 1207.12 596.781C1209.17 596.072 1211.24 595.544 1213.34 595.031C1218.82 593.689 1224.21 592.101 1229.59 590.394C1232.06 589.616 1234.55 588.976 1237.07 588.373C1239.08 587.848 1241.03 587.162 1242.99 586.486C1245.01 585.836 1247.05 585.349 1249.11 584.855C1250.31 584.549 1251.46 584.194 1252.62 583.781C1254.67 583.072 1256.74 582.544 1258.84 582.031C1264.36 580.68 1269.78 579.077 1275.19 577.358C1276.88 576.828 1278.55 576.345 1280.28 576C1282.6 575.533 1284.8 574.743 1287.04 573.977C1289.8 573.043 1292.59 572.283 1295.41 571.551C1297.93 570.893 1300.43 570.182 1302.94 569.469C1303.37 569.346 1303.81 569.223 1304.25 569.097C1306.31 568.509 1308.35 567.892 1310.38 567.205C1312.07 566.632 1313.76 566.156 1315.5 565.75C1317.24 565.328 1318.94 564.878 1320.62 564.281C1323.06 563.432 1325.56 562.85 1328.06 562.241C1330.22 561.711 1332.31 561.096 1334.4 560.357C1336.25 559.756 1338.15 559.334 1340.05 558.875C1341.31 558.55 1342.52 558.177 1343.75 557.75C1345.45 557.158 1347.15 556.702 1348.91 556.281C1350.97 555.782 1352.96 555.196 1354.97 554.5C1357.62 553.585 1360.29 552.957 1363.03 552.355C1364.22 552.068 1365.28 551.742 1366.41 551.281C1368.71 550.345 1371.13 549.824 1373.54 549.241C1375.7 548.713 1377.8 548.099 1379.9 547.357C1381.75 546.756 1383.65 546.334 1385.55 545.875C1386.81 545.55 1388.02 545.177 1389.25 544.75C1390.95 544.158 1392.65 543.702 1394.41 543.281C1396.47 542.782 1398.46 542.196 1400.47 541.5C1403.07 540.605 1405.68 539.979 1408.37 539.387C1410.53 538.875 1412.63 538.219 1414.75 537.551C1419.42 536.082 1424.13 534.715 1428.88 533.469C1431.66 532.736 1434.41 531.924 1437.15 531.064C1445.02 528.659 1452.97 526.514 1460.9 524.342C1464.28 523.415 1467.63 522.49 1470.94 521.338C1472.24 520.923 1473.55 520.603 1474.88 520.281C1477.48 519.647 1480.03 518.888 1482.59 518.086C1487.78 516.494 1493 514.958 1498.28 513.687C1500.74 513.094 1503.1 512.308 1505.49 511.486C1507.51 510.837 1509.54 510.35 1511.6 509.857C1513.21 509.447 1514.76 508.922 1516.32 508.377C1518.24 507.764 1520.19 507.315 1522.15 506.848C1523.54 506.519 1523.54 506.519 1525 505.906C1527.91 505.119 1530.99 504.842 1533.8 506.066Z" fill="#009DE1"/>
<path d="M1529.47 176.902C1532.38 178.951 1535.02 181.026 1537 184C1537 184.495 1537 184.99 1537 185.5C1537.33 185.5 1537.66 185.5 1538 185.5C1541.71 191.93 1541.14 199.16 1541.13 206.353C1541.13 207.449 1541.13 208.545 1541.13 209.641C1541.14 212.618 1541.14 215.595 1541.13 218.571C1541.13 221.737 1541.13 224.903 1541.14 228.068C1541.14 233.767 1541.13 239.466 1541.13 245.165C1541.13 250.225 1541.13 255.284 1541.13 260.344C1541.15 286.375 1541.15 312.405 1540.62 338.432C1540.59 339.871 1540.56 341.31 1540.53 342.749C1540.49 344.959 1540.44 347.169 1540.39 349.378C1540.37 350.174 1540.35 350.969 1540.34 351.764C1540.32 352.842 1540.29 353.919 1540.26 354.996C1540.25 355.593 1540.23 356.19 1540.22 356.805C1539.42 363.009 1534.55 367.205 1530 371C1527.01 373.306 1523.87 375.288 1520.5 377C1519.94 377.284 1519.39 377.568 1518.81 377.861C1515.01 379.749 1511.31 381.077 1507.18 382.084C1505.8 382.425 1504.49 382.812 1503.16 383.281C1501.49 383.863 1499.81 384.305 1498.09 384.719C1495.47 385.353 1492.95 386.172 1490.4 387.049C1488.84 387.552 1487.28 387.892 1485.67 388.219C1483.71 388.689 1481.82 389.379 1479.91 390.033C1478.51 390.497 1477.1 390.852 1475.65 391.187C1474.04 391.625 1472.46 392.177 1470.88 392.719C1468.06 393.68 1465.24 394.473 1462.35 395.16C1460.75 395.563 1459.22 396.087 1457.67 396.627C1456.32 397.057 1454.97 397.389 1453.59 397.719C1451.52 398.22 1449.52 398.807 1447.5 399.5C1444.99 400.362 1442.48 401.024 1439.9 401.642C1438.66 401.96 1437.46 402.329 1436.25 402.75C1434.55 403.342 1432.85 403.798 1431.09 404.219C1429.02 404.72 1427.02 405.307 1425 406C1422.49 406.863 1419.97 407.525 1417.39 408.144C1416.19 408.451 1415.04 408.806 1413.88 409.219C1411.77 409.953 1409.63 410.477 1407.47 411C1405.07 411.58 1402.77 412.216 1400.48 413.144C1398.74 413.776 1396.93 414.161 1395.13 414.596C1390.51 415.743 1385.96 417.156 1381.4 418.503C1377.22 419.734 1373.03 420.926 1368.84 422.119C1367.54 422.49 1366.24 422.862 1364.94 423.234C1356.9 425.54 1348.84 427.797 1340.78 430.032C1334.54 431.761 1328.33 433.548 1322.13 435.426C1319.35 436.265 1316.55 437.003 1313.72 437.68C1312.64 437.962 1311.65 438.302 1310.62 438.719C1308.31 439.647 1305.88 440.173 1303.46 440.758C1301.3 441.287 1299.2 441.901 1297.1 442.642C1295.25 443.244 1293.35 443.666 1291.45 444.125C1290.19 444.45 1288.98 444.822 1287.75 445.25C1286.06 445.837 1284.37 446.297 1282.62 446.719C1280.47 447.24 1278.36 447.835 1276.25 448.5C1273.65 449.319 1271.03 450.001 1268.38 450.642C1267.15 450.962 1265.96 451.331 1264.75 451.75C1263.06 452.337 1261.37 452.797 1259.62 453.219C1256.92 453.875 1254.28 454.677 1251.62 455.514C1250.04 455.989 1248.45 456.395 1246.84 456.781C1245.22 457.174 1243.67 457.589 1242.12 458.219C1239.81 459.147 1237.38 459.673 1234.96 460.258C1232.8 460.787 1230.7 461.401 1228.6 462.142C1226.75 462.744 1224.85 463.166 1222.95 463.625C1221.69 463.95 1220.48 464.322 1219.25 464.75C1217.56 465.337 1215.87 465.797 1214.12 466.219C1211.97 466.74 1209.86 467.335 1207.75 468C1205.15 468.819 1202.53 469.501 1199.88 470.142C1198.65 470.462 1197.46 470.831 1196.25 471.25C1194.56 471.837 1192.87 472.297 1191.12 472.719C1188.42 473.375 1185.78 474.177 1183.12 475.014C1181.54 475.489 1179.95 475.895 1178.34 476.281C1176.68 476.684 1175.09 477.117 1173.5 477.75C1171.42 478.579 1169.28 479.069 1167.1 479.592C1165.47 480.009 1163.86 480.492 1162.25 481C1159.7 481.802 1157.13 482.481 1154.54 483.115C1149.61 484.349 1144.79 485.878 1139.96 487.426C1137.25 488.284 1134.54 489.024 1131.78 489.678C1130.21 490.074 1128.69 490.596 1127.16 491.127C1125.83 491.555 1124.49 491.889 1123.12 492.219C1120.42 492.875 1117.78 493.677 1115.12 494.514C1113.54 494.989 1111.95 495.395 1110.34 495.781C1108.72 496.174 1107.17 496.589 1105.62 497.219C1103.31 498.147 1100.88 498.673 1098.46 499.258C1096.3 499.787 1094.2 500.401 1092.1 501.142C1090.25 501.744 1088.35 502.166 1086.45 502.625C1085.19 502.95 1083.98 503.322 1082.75 503.75C1081.05 504.342 1079.35 504.798 1077.59 505.219C1075.52 505.72 1073.52 506.307 1071.5 507C1068.99 507.862 1066.48 508.525 1063.9 509.142C1062.66 509.458 1061.48 509.827 1060.28 510.25C1058.49 510.874 1056.7 511.311 1054.84 511.719C1052.15 512.317 1049.59 513.11 1046.99 514.014C1044.98 514.669 1042.95 515.151 1040.9 515.642C1039.66 515.96 1038.46 516.329 1037.25 516.75C1035.55 517.342 1033.85 517.798 1032.09 518.219C1030.02 518.72 1028.02 519.307 1026 520C1023.49 520.862 1020.98 521.524 1018.4 522.142C1017.16 522.46 1015.96 522.829 1014.75 523.25C1013.05 523.842 1011.35 524.298 1009.59 524.719C1007.52 525.22 1005.52 525.807 1003.5 526.5C1001.13 527.31 998.765 527.957 996.332 528.545C990.441 530.008 984.565 531.57 978.83 533.566C976.88 534.202 974.894 534.664 972.9 535.142C971.656 535.46 970.462 535.829 969.25 536.25C967.548 536.842 965.846 537.298 964.094 537.719C962.021 538.22 960.016 538.807 958 539.5C955.493 540.362 952.977 541.024 950.4 541.642C949.156 541.96 947.962 542.329 946.75 542.75C945.048 543.342 943.346 543.798 941.594 544.219C939.562 544.711 937.6 545.283 935.625 545.969C933.444 546.717 931.275 547.315 929.031 547.844C925.045 548.788 921.155 550.018 917.25 551.25C912.864 552.633 908.503 553.933 904.027 554.992C899.807 556.016 895.657 557.334 891.493 558.562C889.249 559.22 887 559.861 884.75 560.5C880.996 561.568 877.247 562.654 873.5 563.75C868.492 565.214 863.479 566.655 858.461 568.083C856.823 568.55 855.186 569.019 853.549 569.488C848.03 571.069 842.51 572.646 836.977 574.175C834.281 574.92 831.59 575.682 828.902 576.455C827.458 576.869 826.013 577.278 824.566 577.685C819.776 579.038 815.016 580.453 810.277 581.977C807.633 582.82 804.979 583.538 802.277 584.178C800.705 584.574 799.195 585.096 797.664 585.627C796.33 586.055 794.987 586.389 793.625 586.719C791.537 587.226 789.488 587.794 787.438 588.437C784.856 589.247 782.264 589.999 779.656 590.719C779.279 590.823 778.901 590.927 778.513 591.035C776.939 591.468 775.366 591.9 773.792 592.331C768.136 593.871 768.136 593.871 762.557 595.662C760.764 596.235 758.933 596.651 757.105 597.098C752.159 598.337 747.309 599.871 742.455 601.426C739.751 602.284 737.039 603.024 734.277 603.678C732.705 604.074 731.195 604.596 729.664 605.127C728.33 605.555 726.987 605.889 725.625 606.219C722.972 606.864 720.377 607.634 717.771 608.449C712.473 610.096 707.145 611.607 701.779 613.016C699.523 613.63 697.297 614.33 695.066 615.031C693.501 615.5 691.932 615.899 690.344 616.281C688.719 616.674 687.173 617.089 685.625 617.719C683.307 618.647 680.883 619.173 678.462 619.758C676.296 620.287 674.202 620.901 672.102 621.642C670.247 622.244 668.347 622.666 666.453 623.125C665.192 623.45 663.979 623.822 662.75 624.25C661.048 624.842 659.346 625.298 657.594 625.719C655.521 626.22 653.516 626.807 651.5 627.5C648.992 628.362 646.476 629.025 643.898 629.642C642.664 629.958 641.482 630.327 640.281 630.75C638.489 631.374 636.697 631.811 634.844 632.219C632.151 632.817 629.592 633.61 626.988 634.514C624.984 635.169 622.95 635.651 620.9 636.142C619.656 636.46 618.462 636.829 617.25 637.25C615.548 637.842 613.846 638.298 612.094 638.719C610.021 639.22 608.016 639.807 606 640.5C603.493 641.362 600.977 642.024 598.4 642.642C597.156 642.96 595.962 643.329 594.75 643.75C593.048 644.342 591.346 644.798 589.594 645.219C587.521 645.72 585.516 646.307 583.5 647C581.13 647.81 578.765 648.457 576.332 649.045C570.441 650.508 564.565 652.07 558.83 654.066C556.88 654.702 554.894 655.164 552.9 655.642C551.656 655.96 550.462 656.329 549.25 656.75C547.055 657.512 544.83 658.052 542.57 658.586C541.001 658.974 541.001 658.974 539.523 659.539C534.11 661.51 527.181 662.242 521.656 660.187C520.559 659.639 520.559 659.639 519.5 659C519.078 658.753 518.657 658.506 518.223 658.252C515.101 656.302 515.101 656.302 514.5 654.5C514.191 654.348 513.883 654.197 513.564 654.041C511.565 653.025 510.656 650.856 509.5 649C509.211 648.598 508.923 648.196 508.625 647.781C505.568 641.513 506.427 633.173 506.435 626.379C506.435 625.41 506.434 624.442 506.433 623.474C506.43 620.849 506.431 618.225 506.433 615.601C506.434 612.824 506.433 610.048 506.432 607.271C506.431 602.588 506.432 597.904 506.435 593.22C506.438 587.879 506.437 582.537 506.434 577.195C506.432 572.563 506.431 567.931 506.433 563.298C506.433 560.553 506.434 557.808 506.432 555.063C506.424 540.611 506.598 526.169 506.913 511.72C506.994 507.932 507.054 504.144 507.101 500.355C507.135 497.786 507.189 495.219 507.245 492.651C507.27 491.37 507.287 490.088 507.298 488.807C507.433 474.659 507.433 474.659 512 470C512.663 469.495 513.329 468.994 514 468.5C514.155 468.16 514.309 467.819 514.469 467.469C515.203 466.13 516.114 466.054 517.5 465.5C517.63 465.205 517.759 464.91 517.893 464.605C519.297 462.049 522.57 460.558 525 459C525.423 458.724 525.847 458.448 526.283 458.164C532.129 454.674 539.201 452.829 545.791 451.305C547.232 450.941 548.568 450.422 549.945 449.873C551.238 449.416 552.541 449.101 553.875 448.781C555.959 448.281 557.974 447.698 560 447C562.507 446.138 565.023 445.476 567.6 444.857C568.844 444.54 570.038 444.171 571.25 443.75C572.952 443.158 574.654 442.702 576.406 442.281C579.039 441.644 581.574 440.829 584.135 439.951C585.548 439.484 586.957 439.12 588.404 438.781C590.445 438.257 592.446 437.595 594.457 436.967C595.915 436.525 597.381 436.163 598.863 435.812C600.473 435.37 602.046 434.821 603.625 434.281C606.441 433.32 609.255 432.527 612.152 431.84C613.748 431.437 615.281 430.913 616.834 430.373C618.179 429.943 619.533 429.611 620.906 429.281C623.529 428.647 626.049 427.828 628.6 426.951C630.165 426.447 631.724 426.107 633.334 425.779C634.725 425.446 636.053 424.996 637.406 424.531C639.424 423.838 641.425 423.246 643.5 422.75C645.51 422.268 647.452 421.704 649.406 421.031C652.194 420.077 655.009 419.313 657.859 418.568C660.404 417.899 662.937 417.186 665.469 416.469C665.907 416.346 666.345 416.223 666.796 416.097C668.772 415.534 670.711 414.942 672.629 414.205C674.245 413.596 675.79 413.137 677.469 412.75C679.221 412.329 680.926 411.882 682.625 411.281C684.58 410.603 686.551 410.108 688.563 409.625C692.434 408.69 696.225 407.537 700.028 406.358C703.922 405.158 707.838 404.062 711.778 403.021C714.217 402.371 716.608 401.645 718.997 400.83C720.275 400.409 721.565 400.086 722.875 399.781C725.528 399.135 728.123 398.366 730.729 397.551C735.417 396.093 740.127 394.717 744.875 393.469C747.659 392.736 750.406 391.925 753.152 391.064C755.924 390.218 758.713 389.432 761.5 388.641C764.245 387.861 766.984 387.064 769.719 386.25C774.788 384.746 779.896 383.383 785 382C789.577 380.76 794.114 379.496 798.6 377.951C800.575 377.315 802.582 376.841 804.6 376.357C805.844 376.04 807.038 375.671 808.25 375.25C809.952 374.658 811.654 374.202 813.406 373.781C815.438 373.289 817.4 372.717 819.375 372.031C821.663 371.247 823.964 370.603 826.313 370.031C832.315 368.57 838.257 366.963 844.1 364.951C846.075 364.315 848.082 363.841 850.1 363.357C851.344 363.04 852.538 362.671 853.75 362.25C855.452 361.658 857.154 361.202 858.906 360.781C860.938 360.289 862.9 359.717 864.875 359.031C867.163 358.247 869.464 357.603 871.813 357.031C877.815 355.57 883.757 353.963 889.6 351.951C891.575 351.315 893.582 350.841 895.6 350.357C896.844 350.04 898.038 349.671 899.25 349.25C900.942 348.663 902.634 348.203 904.375 347.781C906.982 347.146 909.53 346.388 912.09 345.586C917.28 343.994 922.503 342.458 927.781 341.187C930.24 340.594 932.603 339.808 934.994 338.986C937.006 338.337 939.045 337.85 941.1 337.357C942.344 337.04 943.538 336.671 944.75 336.25C946.442 335.663 948.134 335.203 949.875 334.781C951.995 334.267 954.075 333.685 956.156 333.031C958.426 332.319 960.7 331.667 963 331.062C966.156 330.232 969.299 329.362 972.438 328.469C972.871 328.346 973.305 328.223 973.752 328.097C975.796 327.513 977.822 326.902 979.834 326.217C981.775 325.56 983.725 325.039 985.719 324.562C991.751 323.09 997.727 321.474 1003.6 319.451C1005.58 318.815 1007.58 318.341 1009.6 317.857C1010.84 317.54 1012.04 317.171 1013.25 316.75C1014.95 316.158 1016.65 315.702 1018.41 315.281C1020.44 314.789 1022.4 314.217 1024.38 313.531C1026.66 312.747 1028.96 312.103 1031.31 311.531C1037.31 310.07 1043.26 308.463 1049.1 306.451C1051.08 305.814 1053.08 305.341 1055.1 304.857C1056.34 304.542 1057.52 304.173 1058.72 303.75C1060.51 303.126 1062.3 302.688 1064.16 302.281C1066.85 301.683 1069.41 300.89 1072.01 299.986C1074.02 299.331 1076.05 298.849 1078.1 298.357C1079.34 298.04 1080.54 297.671 1081.75 297.25C1083.45 296.658 1085.15 296.202 1086.91 295.781C1088.94 295.289 1090.9 294.717 1092.88 294.031C1095.16 293.247 1097.46 292.603 1099.81 292.031C1105.81 290.57 1111.76 288.963 1117.6 286.951C1119.57 286.315 1121.58 285.842 1123.59 285.359C1124.87 285.033 1126.1 284.651 1127.34 284.219C1128.73 283.736 1130.09 283.354 1131.53 283.062C1134.06 282.536 1136.5 281.732 1138.95 280.946C1141.5 280.137 1144.07 279.463 1146.67 278.84C1148.26 278.434 1149.79 277.911 1151.33 277.373C1152.68 276.943 1154.03 276.611 1155.41 276.281C1157.48 275.779 1159.48 275.193 1161.5 274.5C1163.87 273.69 1166.23 273.042 1168.67 272.455C1174.53 271 1180.38 269.456 1186.08 267.464C1187.46 267.013 1188.83 266.651 1190.25 266.312C1193.6 265.488 1196.91 264.55 1200.22 263.594C1201.46 263.237 1202.7 262.88 1203.94 262.523C1204.55 262.349 1205.15 262.175 1205.78 261.995C1207.72 261.435 1209.67 260.88 1211.62 260.326C1215.91 259.106 1220.19 257.87 1224.47 256.625C1224.98 256.478 1225.48 256.331 1226 256.179C1227.92 255.62 1229.83 255.057 1231.72 254.424C1233 254 1233 254 1234.94 253.594C1237.5 253.05 1239.97 252.242 1242.45 251.446C1245 250.637 1247.57 249.963 1250.17 249.34C1251.39 249.028 1252.56 248.662 1253.75 248.25C1255.89 247.51 1258.06 246.974 1260.26 246.437C1265.62 245.092 1270.92 243.548 1276.19 241.868C1278.62 241.1 1281.06 240.466 1283.54 239.871C1285.1 239.475 1286.62 239.012 1288.16 238.531C1291.08 237.615 1294.02 236.813 1296.98 236.033C1304.14 234.156 1304.14 234.156 1311.19 231.937C1313.49 231.148 1315.8 230.527 1318.17 229.955C1324.06 228.492 1329.94 226.93 1335.67 224.933C1337.62 224.298 1339.61 223.836 1341.6 223.357C1342.84 223.04 1344.04 222.671 1345.25 222.25C1346.94 221.663 1348.63 221.203 1350.38 220.781C1352.5 220.267 1354.57 219.685 1356.66 219.031C1358.93 218.319 1361.2 217.667 1363.5 217.062C1366.66 216.232 1369.8 215.362 1372.94 214.469C1373.37 214.346 1373.81 214.223 1374.25 214.097C1376.3 213.513 1378.32 212.902 1380.33 212.217C1382.27 211.56 1384.22 211.039 1386.22 210.562C1392.26 209.087 1398.24 207.46 1404.12 205.445C1405.95 204.853 1407.8 204.406 1409.67 203.955C1415.56 202.492 1421.44 200.93 1427.17 198.933C1429.12 198.298 1431.1 197.837 1433.09 197.359C1434.37 197.033 1435.6 196.651 1436.84 196.219C1438.23 195.736 1439.59 195.354 1441.03 195.062C1443.56 194.536 1446 193.732 1448.45 192.946C1451 192.137 1453.57 191.463 1456.17 190.84C1457.76 190.434 1459.29 189.911 1460.83 189.373C1462.18 188.943 1463.53 188.611 1464.91 188.281C1467.01 187.772 1469.05 187.172 1471.09 186.469C1473.15 185.761 1475.17 185.214 1477.3 184.779C1479.35 184.303 1481.33 183.633 1483.34 183.002C1484.89 182.532 1486.45 182.129 1488.03 181.75C1490.58 181.135 1493.02 180.337 1495.49 179.486C1497.5 178.837 1499.54 178.351 1501.59 177.859C1503.24 177.439 1504.82 176.901 1506.42 176.346C1507.92 175.866 1509.44 175.535 1510.98 175.215C1511.98 175.019 1511.98 175.019 1512.88 174.73C1518.21 173.634 1524.81 174.038 1529.47 176.902Z" fill="#21D2ED"/>
<path d="M1143.5 1035.5C1143.85 1035.64 1144.2 1035.79 1144.56 1035.94C1148.38 1037.52 1152.1 1039.12 1155.5 1041.5C1156.28 1042.02 1157.06 1042.54 1157.84 1043.06C1158.2 1043.3 1158.55 1043.54 1158.91 1043.79C1159.67 1044.28 1160.44 1044.76 1161.22 1045.22C1162.57 1046.04 1163.86 1046.93 1165.16 1047.84C1165.6 1048.15 1166.04 1048.47 1166.49 1048.79C1166.83 1049.02 1167.16 1049.26 1167.5 1049.5C1167.33 1050.16 1167.17 1050.82 1167 1051.5C1166.5 1051.5 1166.01 1051.5 1165.5 1051.5C1165.5 1051.83 1165.5 1052.16 1165.5 1052.5C1164.63 1053.22 1163.73 1053.9 1162.81 1054.56C1162.31 1054.92 1161.81 1055.29 1161.3 1055.66C1160 1056.5 1160 1056.5 1159 1056.5C1158.83 1056.99 1158.67 1057.49 1158.5 1058C1157.67 1058.51 1156.84 1059.01 1156 1059.5C1155.32 1060.16 1154.66 1060.82 1154 1061.5C1153.4 1062.05 1152.8 1062.59 1152.19 1063.12C1151.89 1063.39 1151.6 1063.65 1151.29 1063.91C1150.5 1064.5 1150.5 1064.5 1149.5 1064.5C1149.4 1064.77 1149.3 1065.04 1149.19 1065.32C1148.22 1066.97 1146.85 1068.12 1145.44 1069.37C1144.85 1069.91 1144.25 1070.45 1143.66 1070.98C1143.38 1071.24 1143.09 1071.5 1142.8 1071.77C1140.09 1074.25 1137.61 1076.88 1135.27 1079.72C1134.5 1080.5 1134.5 1080.5 1133 1081C1132.66 1081.83 1132.33 1082.67 1132 1083.5C1131.09 1084.5 1131.09 1084.5 1130 1085.5C1128.34 1087.08 1127.16 1088.53 1126 1090.5C1125.71 1090.79 1125.42 1091.07 1125.12 1091.37C1123.75 1092.75 1122.61 1094.24 1121.44 1095.78C1121.11 1096.21 1121.11 1096.21 1120.77 1096.66C1119.81 1097.92 1118.88 1099.18 1118 1100.5C1117.67 1100.5 1117.34 1100.5 1117 1100.5C1116.81 1101.18 1116.81 1101.18 1116.62 1101.87C1115.96 1103.59 1115.32 1104.26 1114 1105.5C1113.49 1106.33 1112.99 1107.16 1112.5 1108C1110.6 1111.04 1108.65 1114.05 1106.63 1117.01C1106.01 1117.98 1105.49 1118.96 1105 1120C1104.67 1120 1104.34 1120 1104 1120C1103.97 1120.42 1103.94 1120.85 1103.91 1121.28C1103.46 1123.17 1102.78 1124.1 1101.63 1125.61C1100.67 1126.97 1100.12 1128.46 1099.5 1130C1099.18 1130.64 1098.86 1131.27 1098.53 1131.91C1097.56 1133.81 1096.78 1135.76 1096 1137.75C1095.05 1140.14 1093.98 1142.48 1092.89 1144.81C1091.41 1147.99 1090.16 1151.19 1089 1154.5C1087.99 1157.35 1086.94 1160.16 1085.75 1162.94C1084.68 1165.48 1083.84 1168.04 1083.05 1170.68C1082.39 1172.86 1081.69 1175.02 1080.97 1177.19C1080.85 1177.56 1080.72 1177.94 1080.6 1178.32C1080.02 1180.05 1079.42 1181.74 1078.69 1183.4C1078.05 1184.89 1077.66 1186.32 1077.29 1187.89C1076.83 1189.64 1076.17 1191.31 1075.54 1193C1074.96 1194.61 1074.46 1196.23 1073.97 1197.87C1073.45 1199.58 1072.94 1201.25 1072.22 1202.87C1071.49 1204.53 1070.93 1206.19 1070.37 1207.91C1070.05 1208.86 1069.65 1209.79 1069.25 1210.72C1068.65 1212.15 1068.2 1213.48 1067.78 1214.97C1067.21 1216.94 1066.47 1218.64 1065.52 1220.44C1064.71 1222.09 1064.14 1223.81 1063.53 1225.53C1062.37 1228.72 1061.18 1231.95 1059.44 1234.87C1058.45 1236.48 1058.45 1236.48 1057.84 1238.31C1056.96 1240.71 1055.8 1242.93 1054.59 1245.19C1054.26 1245.82 1054.26 1245.82 1053.92 1246.46C1052.57 1248.99 1051.16 1251.47 1049.65 1253.91C1048.95 1255.09 1048.35 1256.3 1047.75 1257.53C1046.75 1259.59 1045.59 1261.45 1044.3 1263.33C1043.43 1264.6 1042.62 1265.89 1041.81 1267.19C1040 1270.05 1038.02 1272.78 1036 1275.5C1035.71 1275.91 1035.42 1276.31 1035.12 1276.73C1034.85 1277.1 1034.59 1277.47 1034.31 1277.84C1033.97 1278.33 1033.97 1278.33 1033.61 1278.82C1033.41 1279.04 1033.21 1279.27 1033 1279.5C1032.67 1279.5 1032.34 1279.5 1032 1279.5C1031.81 1280.09 1031.81 1280.09 1031.62 1280.69C1030.89 1282.23 1030.46 1282.27 1029 1283C1028.66 1283.83 1028.33 1284.67 1028 1285.5C1027.19 1286.41 1026.4 1287.19 1025.5 1288C1024.96 1288.5 1024.96 1288.5 1024.4 1289.02C1019.71 1293.31 1014.83 1297.03 1009.5 1300.5C1009 1300.84 1008.49 1301.18 1007.98 1301.53C1003.88 1304.22 999.583 1305.9 994.937 1307.41C994.249 1307.63 994.249 1307.63 993.547 1307.86C979.035 1312.41 960.978 1309.92 947.572 1303.12C944.085 1301.27 940.71 1299.3 937.5 1297C937.034 1296.69 936.568 1296.39 936.088 1296.07C934.424 1294.95 932.835 1293.76 931.25 1292.53C930.843 1292.22 930.843 1292.22 930.428 1291.9C923.105 1286.25 923.105 1286.25 921.969 1283.91C921.578 1282.92 921.578 1282.92 920.6 1282.58C915.636 1279.97 910.903 1272.15 908 1267.5C908 1267.17 908 1266.84 908 1266.5C907.67 1266.5 907.34 1266.5 907 1266.5C906.213 1265.41 905.49 1264.33 904.781 1263.19C904.584 1262.88 904.386 1262.57 904.183 1262.25C903.001 1260.38 901.975 1258.49 901 1256.5C900.625 1255.88 900.241 1255.26 899.844 1254.66C897.58 1251.09 895.62 1247.4 894 1243.5C893.681 1242.86 893.358 1242.23 893.031 1241.59C891.222 1238.02 889.877 1234.24 888.529 1230.47C888.17 1229.47 887.801 1228.48 887.424 1227.48C882.842 1215.2 879.838 1201.81 879.969 1188.66C879.976 1187.76 879.976 1187.76 879.982 1186.84C879.988 1186.4 879.994 1185.95 880 1185.5C880.495 1185.5 880.99 1185.5 881.5 1185.5C882.053 1186.2 882.053 1186.2 882.594 1187.19C885.828 1192.67 890.401 1197.63 895 1202C895.335 1202.33 895.67 1202.65 896.016 1202.99C899.391 1206.17 903.016 1208.66 907 1211C907.483 1211.28 907.967 1211.57 908.465 1211.86C918.877 1217.5 929.87 1217.98 941.062 1214.66C944.687 1213.37 949.133 1211.4 951.857 1208.63C952.5 1208 952.5 1208 954 1208C954 1207.67 954 1207.34 954 1207C954.715 1206.38 955.461 1205.79 956.219 1205.22C959.504 1202.65 962.59 1199.92 964.969 1196.47C965.309 1195.98 965.649 1195.5 966 1195C966.33 1195 966.66 1195 967 1195C967.124 1194.63 967.247 1194.26 967.375 1193.87C968.059 1192.37 968.839 1191.66 970 1190.5C970.494 1189.68 970.984 1188.85 971.443 1188.01C972.047 1186.91 972.692 1185.85 973.344 1184.78C977.15 1178.42 980.526 1171.98 983.686 1165.27C984.778 1162.96 985.906 1160.66 987.062 1158.37C989.683 1153.18 992.133 1147.91 994.604 1142.65C994.781 1142.27 994.958 1141.89 995.141 1141.5C995.471 1140.8 995.801 1140.1 996.131 1139.39C996.898 1137.76 997.68 1136.13 998.492 1134.52C999.524 1132.47 1000.5 1130.39 1001.47 1128.31C1003.61 1123.75 1005.82 1119.26 1008.29 1114.87C1008.95 1113.59 1009.53 1112.3 1010.08 1110.97C1010.89 1109.09 1011.78 1107.25 1012.66 1105.41C1012.95 1104.78 1012.95 1104.78 1013.26 1104.14C1014.57 1101.37 1015.91 1098.63 1017.29 1095.9C1017.81 1094.88 1018.31 1093.86 1018.81 1092.84C1019.22 1092.02 1019.22 1092.02 1019.62 1091.19C1019.86 1090.7 1020.1 1090.21 1020.35 1089.7C1021 1088.5 1021 1088.5 1022 1087.5C1022.36 1086.51 1022.69 1085.51 1023 1084.5C1023.33 1084.5 1023.66 1084.5 1024 1084.5C1024.17 1084 1024.17 1084 1024.34 1083.5C1025.05 1081.9 1025.9 1080.51 1026.85 1079.04C1027.78 1077.55 1028.64 1076.03 1029.5 1074.5C1029.83 1074.5 1030.16 1074.5 1030.5 1074.5C1030.65 1074 1030.65 1074 1030.81 1073.5C1031.75 1071.46 1032.99 1069.66 1034.5 1068C1034.83 1068 1035.16 1068 1035.5 1068C1035.69 1067.41 1035.69 1067.41 1035.87 1066.81C1036.61 1065.27 1037.04 1065.23 1038.5 1064.5C1038.84 1063.67 1039.17 1062.83 1039.5 1062C1040.68 1060.69 1041.89 1059.58 1043.28 1058.5C1044.56 1057.53 1044.56 1057.53 1045.53 1056.16C1046.6 1054.87 1046.96 1054.86 1048.5 1054.5C1048.64 1054.2 1048.78 1053.91 1048.92 1053.61C1050.8 1050.04 1056.1 1047.06 1059.5 1045C1060.64 1044.65 1060.64 1044.65 1061.5 1044.5C1061.5 1044.17 1061.5 1043.84 1061.5 1043.5C1072.87 1037.03 1084.03 1032.11 1097 1030C1097.35 1029.94 1097.69 1029.88 1098.05 1029.82C1113.21 1027.31 1129.36 1029.61 1143.5 1035.5Z" fill="#23EBC4"/>
<path d="M1047.5 1054.5C1047.83 1054.67 1048.16 1054.83 1048.5 1055C1045.53 1057.97 1042.56 1060.94 1039.5 1064C1039.17 1063.83 1038.84 1063.67 1038.5 1063.5C1038.86 1063.15 1039.22 1062.8 1039.59 1062.44C1040.54 1061.49 1041.39 1060.54 1042.25 1059.5C1043.85 1057.58 1045.41 1055.89 1047.5 1054.5Z" fill="#169279"/>
<path d="M511.5 796C511.83 796.165 512.16 796.33 512.5 796.5C511.345 797.655 510.19 798.81 509 800C508.67 799.835 508.34 799.67 508 799.5C509.167 798.333 510.333 797.167 511.5 796Z" fill="#00567B"/>
</svg>
